<mxfile host="Electron" agent="Mozilla/5.0 (X11; Linux x86_64) AppleWebKit/537.36 (KHTML, like Gecko) draw.io/26.2.2 Chrome/134.0.6998.178 Electron/35.1.2 Safari/537.36" version="26.2.2">
  <diagram name="Page-1" id="6Us45bZ7BgL1ditrrXL7">
    <mxGraphModel dx="1404" dy="846" grid="1" gridSize="10" guides="1" tooltips="1" connect="1" arrows="1" fold="1" page="1" pageScale="1" pageWidth="827" pageHeight="1169" math="0" shadow="0">
      <root>
        <mxCell id="0" />
        <mxCell id="1" parent="0" />
        <mxCell id="fmnLKLAL4xbRukRoTZjl-3" value="client calls" style="rounded=1;whiteSpace=wrap;html=1;sketch=1;curveFitting=1;jiggle=2;glass=0;shadow=1;align=center;verticalAlign=middle;fontFamily=Helvetica;fontSize=12;strokeColor=#C3ABD0;" parent="1" vertex="1">
          <mxGeometry x="260" y="160" width="130" height="60" as="geometry" />
        </mxCell>
        <mxCell id="fmnLKLAL4xbRukRoTZjl-4" value="avail-calculator" style="rounded=1;whiteSpace=wrap;html=1;sketch=1;curveFitting=1;jiggle=2;glass=0;shadow=1;align=center;verticalAlign=middle;fontFamily=Helvetica;fontSize=12;strokeColor=#C3ABD0;" parent="1" vertex="1">
          <mxGeometry x="160" y="410" width="130" height="60" as="geometry" />
        </mxCell>
        <mxCell id="fmnLKLAL4xbRukRoTZjl-5" value="hub" style="rounded=1;whiteSpace=wrap;html=1;sketch=1;curveFitting=1;jiggle=2;glass=0;shadow=1;strokeColor=#C3ABD0;" parent="1" vertex="1">
          <mxGeometry x="260" y="270" width="130" height="60" as="geometry" />
        </mxCell>
        <mxCell id="vJRkTu4c7_p65PvyxPqy-1" value="" style="edgeStyle=orthogonalEdgeStyle;shape=connector;rounded=0;sketch=1;jiggle=2;curveFitting=1;orthogonalLoop=1;jettySize=auto;html=1;shadow=1;align=center;verticalAlign=middle;fontFamily=Helvetica;fontSize=12;fontColor=default;labelBackgroundColor=default;endArrow=block;endFill=1;flowAnimation=0;strokeColor=#C3ABD0;" edge="1" parent="1" source="fmnLKLAL4xbRukRoTZjl-3" target="fmnLKLAL4xbRukRoTZjl-5">
          <mxGeometry relative="1" as="geometry">
            <mxPoint x="765" y="230" as="sourcePoint" />
            <mxPoint x="765" y="170" as="targetPoint" />
          </mxGeometry>
        </mxCell>
        <mxCell id="vJRkTu4c7_p65PvyxPqy-2" value="" style="edgeStyle=orthogonalEdgeStyle;shape=connector;rounded=0;sketch=1;jiggle=2;curveFitting=1;orthogonalLoop=1;jettySize=auto;html=1;shadow=1;align=center;verticalAlign=middle;fontFamily=Helvetica;fontSize=12;fontColor=default;labelBackgroundColor=default;endArrow=block;endFill=1;flowAnimation=0;strokeColor=#C3ABD0;" edge="1" parent="1" source="fmnLKLAL4xbRukRoTZjl-5" target="fmnLKLAL4xbRukRoTZjl-4">
          <mxGeometry relative="1" as="geometry">
            <mxPoint x="335" y="230" as="sourcePoint" />
            <mxPoint x="335" y="280" as="targetPoint" />
          </mxGeometry>
        </mxCell>
        <mxCell id="vJRkTu4c7_p65PvyxPqy-3" value="notification-dispatcher" style="rounded=1;whiteSpace=wrap;html=1;sketch=1;curveFitting=1;jiggle=2;glass=0;shadow=1;align=center;verticalAlign=middle;fontFamily=Helvetica;fontSize=12;strokeColor=#C3ABD0;" vertex="1" parent="1">
          <mxGeometry x="349" y="410" width="130" height="60" as="geometry" />
        </mxCell>
        <mxCell id="vJRkTu4c7_p65PvyxPqy-4" value="email" style="rounded=1;whiteSpace=wrap;html=1;sketch=1;curveFitting=1;jiggle=2;glass=0;shadow=1;align=center;verticalAlign=middle;fontFamily=Helvetica;fontSize=12;strokeColor=#C3ABD0;" vertex="1" parent="1">
          <mxGeometry x="240" y="540" width="130" height="60" as="geometry" />
        </mxCell>
        <mxCell id="vJRkTu4c7_p65PvyxPqy-5" value="sms" style="rounded=1;whiteSpace=wrap;html=1;sketch=1;curveFitting=1;jiggle=2;glass=0;shadow=1;align=center;verticalAlign=middle;fontFamily=Helvetica;fontSize=12;strokeColor=#C3ABD0;" vertex="1" parent="1">
          <mxGeometry x="440" y="540" width="130" height="60" as="geometry" />
        </mxCell>
        <mxCell id="vJRkTu4c7_p65PvyxPqy-6" value="" style="edgeStyle=orthogonalEdgeStyle;shape=connector;rounded=0;sketch=1;jiggle=2;curveFitting=1;orthogonalLoop=1;jettySize=auto;html=1;shadow=1;align=center;verticalAlign=middle;fontFamily=Helvetica;fontSize=12;fontColor=default;labelBackgroundColor=default;endArrow=block;endFill=1;flowAnimation=0;strokeColor=#C3ABD0;" edge="1" parent="1" source="fmnLKLAL4xbRukRoTZjl-5" target="vJRkTu4c7_p65PvyxPqy-3">
          <mxGeometry relative="1" as="geometry">
            <mxPoint x="335" y="340" as="sourcePoint" />
            <mxPoint x="235" y="420" as="targetPoint" />
          </mxGeometry>
        </mxCell>
        <mxCell id="vJRkTu4c7_p65PvyxPqy-7" value="" style="edgeStyle=orthogonalEdgeStyle;shape=connector;rounded=0;sketch=1;jiggle=2;curveFitting=1;orthogonalLoop=1;jettySize=auto;html=1;shadow=1;align=center;verticalAlign=middle;fontFamily=Helvetica;fontSize=12;fontColor=default;labelBackgroundColor=default;endArrow=block;endFill=1;flowAnimation=0;strokeColor=#C3ABD0;" edge="1" parent="1" source="vJRkTu4c7_p65PvyxPqy-3" target="vJRkTu4c7_p65PvyxPqy-5">
          <mxGeometry relative="1" as="geometry">
            <mxPoint x="335" y="340" as="sourcePoint" />
            <mxPoint x="424" y="420" as="targetPoint" />
          </mxGeometry>
        </mxCell>
        <mxCell id="vJRkTu4c7_p65PvyxPqy-8" value="" style="edgeStyle=orthogonalEdgeStyle;shape=connector;rounded=0;sketch=1;jiggle=2;curveFitting=1;orthogonalLoop=1;jettySize=auto;html=1;shadow=1;align=center;verticalAlign=middle;fontFamily=Helvetica;fontSize=12;fontColor=default;labelBackgroundColor=default;endArrow=block;endFill=1;flowAnimation=0;strokeColor=#C3ABD0;" edge="1" parent="1" source="vJRkTu4c7_p65PvyxPqy-3" target="vJRkTu4c7_p65PvyxPqy-4">
          <mxGeometry relative="1" as="geometry">
            <mxPoint x="424" y="480" as="sourcePoint" />
            <mxPoint x="515" y="550" as="targetPoint" />
          </mxGeometry>
        </mxCell>
      </root>
    </mxGraphModel>
  </diagram>
</mxfile>
